<svg xmlns="http://www.w3.org/2000/svg" viewBox="0 0 512 512">
  <rect width="512" height="512" rx="96" fill="#0b1220"/>
  <path d="M166 192c21-42 52-63 93-63 61 0 100 42 114 126-21-42-52-63-93-63-61 0-100 42-114 126-21-42-52-63-93-63 21-42 52-63 93-63z" fill="#38bdf8"/>
  <path d="M259 255c21-42 52-63 93-63 61 0 100 42 114 126-21-42-52-63-93-63-61 0-100 42-114 126-21-42-52-63-93-63 21-42 52-63 93-63z" fill="#22d3ee"/>
  <text x="256" y="452" text-anchor="middle" font-family="Arial, sans-serif" font-size="48" font-weight="700" fill="#e6fbff">Tailwind</text>
</svg>
